<svg width="36" height="24" viewBox="0 0 36 24" fill="none" xmlns="http://www.w3.org/2000/svg">
<path d="M32.4423 3.91789H23.2446V1.61818H32.4423V3.91789ZM18.3834 13.3434C18.9758 14.2694 19.2732 15.3949 19.2732 16.7108C19.2732 18.0766 18.9387 19.2984 18.2584 20.3786C17.8259 21.0938 17.2875 21.6979 16.6421 22.183C15.9145 22.7452 15.054 23.1328 14.065 23.3402C13.0716 23.5476 11.9982 23.6485 10.8415 23.6485H0.554688V0.667236H11.5837C14.3635 0.71144 16.3346 1.52184 17.4981 3.11543C18.1964 4.0913 18.5422 5.26213 18.5422 6.62337C18.5422 8.02995 18.1908 9.15317 17.4868 10.0066C17.0949 10.4861 16.5159 10.9224 15.7478 11.3146C16.9113 11.7442 17.7932 12.4163 18.3834 13.3434ZM5.82141 9.72781H10.6545C11.6479 9.72781 12.451 9.53627 13.0682 9.1577C13.6866 8.77801 13.9952 8.10362 13.9952 7.13568C13.9952 6.06799 13.5875 5.35847 12.7686 5.01731C12.0647 4.77929 11.1647 4.65688 10.0733 4.65688H5.82141V9.72781ZM14.4604 16.3821C14.4604 15.1886 13.9749 14.3646 13.0074 13.9203C12.4668 13.6699 11.7031 13.5395 10.7243 13.5304H5.82141V19.6543H10.6466C11.6389 19.6543 12.406 19.5251 12.9601 19.2508C13.9592 18.7521 14.4604 17.7989 14.4604 16.3821ZM35.8539 12.6441C35.9666 13.3967 36.0172 14.4871 35.9947 15.9129H24.0849C24.1513 17.5677 24.7179 18.7238 25.7958 19.3857C26.4434 19.8005 27.2307 20.0034 28.1532 20.0034C29.1252 20.0034 29.917 19.7563 30.5264 19.2486C30.8586 18.9788 31.1515 18.598 31.4038 18.1197H35.7706C35.6546 19.0956 35.1308 20.085 34.1847 21.0949C32.7216 22.693 30.6694 23.4989 28.0338 23.4989C25.8544 23.4989 23.9362 22.8188 22.2704 21.4712C20.609 20.1202 19.7755 17.9225 19.7755 14.8781C19.7755 12.023 20.5257 9.83549 22.0282 8.31557C23.5352 6.79112 25.4804 6.03286 27.8795 6.03286C29.3009 6.03286 30.5827 6.28788 31.727 6.80132C32.8669 7.31702 33.8085 8.12629 34.5496 9.23931C35.2198 10.2197 35.6523 11.3531 35.8539 12.6441ZM31.5547 13.0737C31.477 11.9301 31.0963 11.0641 30.4115 10.4725C29.7323 9.87743 28.8864 9.58047 27.8772 9.58047C26.7757 9.58047 25.9298 9.89783 25.3238 10.5235C24.7168 11.1503 24.3394 11.9981 24.184 13.0737H31.5547Z" fill="white"/>
</svg>
