<svg width="16" height="29" viewBox="0 0 16 29" fill="none" xmlns="http://www.w3.org/2000/svg">
<path d="M14.6504 0.00589569L10.9989 0C6.89662 0 4.24554 2.73707 4.24554 6.97342V10.1886H0.574157C0.256906 10.1886 0 10.4475 0 10.7667V15.4252C0 15.7444 0.257199 16.003 0.574157 16.003H4.24554V27.7578C4.24554 28.077 4.50245 28.3356 4.8197 28.3356H9.60981C9.92706 28.3356 10.184 28.0767 10.184 27.7578V16.003H14.4767C14.7939 16.003 15.0508 15.7444 15.0508 15.4252L15.0526 10.7667C15.0526 10.6134 14.9919 10.4666 14.8844 10.3581C14.7769 10.2497 14.6305 10.1886 14.4781 10.1886H10.184V7.46306C10.184 6.15303 10.4942 5.488 12.19 5.488L14.6498 5.48712C14.9667 5.48712 15.2237 5.2283 15.2237 4.90934V0.583673C15.2237 0.265011 14.967 0.00648526 14.6504 0.00589569Z" fill="white"/>
</svg>
