<svg width="29" height="29" viewBox="0 0 29 29" fill="none" xmlns="http://www.w3.org/2000/svg">
<path d="M7.04904 9.23828H1.38376C1.13232 9.23828 0.928589 9.44339 0.928589 9.69631V28.011C0.928589 28.264 1.13232 28.4691 1.38376 28.4691H7.04904C7.30048 28.4691 7.50421 28.264 7.50421 28.011V9.69631C7.50421 9.44339 7.30048 9.23828 7.04904 9.23828Z" fill="white"/>
<path d="M4.21848 0.133545C2.15712 0.133545 0.480103 1.81929 0.480103 3.89134C0.480103 5.9643 2.15712 7.65069 4.21848 7.65069C6.27821 7.65069 7.95386 5.96421 7.95386 3.89134C7.95395 1.81929 6.27821 0.133545 4.21848 0.133545Z" fill="white"/>
<path d="M21.4592 8.78345C19.1838 8.78345 17.5018 9.76776 16.4816 10.8862V9.69667C16.4816 9.44375 16.2779 9.23864 16.0264 9.23864H10.6009C10.3495 9.23864 10.1458 9.44375 10.1458 9.69667V28.0114C10.1458 28.2644 10.3495 28.4694 10.6009 28.4694H16.2538C16.5053 28.4694 16.709 28.2644 16.709 28.0114V18.9499C16.709 15.8963 17.5332 14.7067 19.6485 14.7067C21.9522 14.7067 22.1352 16.6138 22.1352 19.107V28.0115C22.1352 28.2645 22.339 28.4695 22.5904 28.4695H28.2454C28.4968 28.4695 28.7006 28.2645 28.7006 28.0115V17.9655C28.7006 13.4251 27.8402 8.78345 21.4592 8.78345Z" fill="white"/>
</svg>
