<svg width="130" height="130" viewBox="0 0 130 130" fill="none" xmlns="http://www.w3.org/2000/svg">
<g clip-path="url(#clip0_1_323)">
<path fill-rule="evenodd" clip-rule="evenodd" d="M113.353 63.7527C83.3019 89.5831 43.2151 89.3596 17.7729 58.5162C16.926 57.4892 15.4072 57.343 14.3854 58.1766C13.3562 59.0292 13.2092 60.5499 14.0561 61.5768C41.3198 94.6547 84.2855 95.0879 116.492 67.4141C117.498 66.5527 117.616 65.0208 116.751 64.0085C115.878 63.0154 114.359 62.8912 113.353 63.7527Z" fill="#FFFDD5"/>
<path d="M50.4973 55.0717C54.1156 56.4641 58.1777 54.6598 59.5701 51.0415C60.9626 47.4232 59.1581 43.3612 55.5398 41.9687C51.9215 40.5763 47.8595 42.3807 46.4671 45.999C45.0746 49.6173 46.879 53.6793 50.4973 55.0717Z" fill="#FFFDD5"/>
<path d="M80.3016 58.54C83.8492 59.9052 87.8318 58.1362 89.1971 54.5886C90.5623 51.041 88.7931 47.0584 85.2455 45.6931C81.6979 44.3279 77.7153 46.097 76.3501 49.6446C74.9849 53.1922 76.754 57.1748 80.3016 58.54Z" fill="#FFFDD5"/>
</g>
<defs>
<clipPath id="clip0_1_323">
<rect width="100" height="100" fill="white" transform="translate(36.2939 0.378418) rotate(21.0483)"/>
</clipPath>
</defs>
</svg>
