<svg width="36" height="29" viewBox="0 0 36 29" fill="none" xmlns="http://www.w3.org/2000/svg">
<path d="M13.6093 28.4691C12.1215 28.4691 10.5902 28.3479 9.04963 28.1049C6.3363 27.6764 3.58963 26.2482 2.8124 25.8206L0.773926 24.699L2.98092 23.9687C5.39344 23.1705 6.86101 22.6752 8.67768 21.8997C6.85865 21.0132 5.4567 19.4186 4.78185 17.3573L4.26842 15.7888L4.68945 15.8535C4.29021 15.4486 3.97496 15.0376 3.73058 14.6638C2.86149 13.3355 2.40135 11.7123 2.49926 10.3214L2.59585 8.95234L3.41035 9.26984C3.06675 8.61689 2.81844 7.91956 2.6725 7.18868C2.31683 5.40627 2.61449 3.51265 3.51088 1.85675L4.22038 0.546092L5.16928 1.69299C8.17029 5.32068 11.9714 7.47263 16.4827 8.1026C16.2985 6.82443 16.4365 5.5909 16.8935 4.48521C17.4256 3.19779 18.3721 2.1061 19.63 1.32795C21.0269 0.463945 22.721 0.0452831 24.4002 0.14909C26.1817 0.259236 27.7991 0.930944 29.0837 2.0929C29.7111 1.92886 30.1733 1.75374 30.798 1.51707C31.1739 1.3747 31.6002 1.21305 32.1336 1.02815L34.0991 0.346667L32.8173 4.03036C32.9019 4.02323 32.989 4.01715 33.0801 4.01319L35.1789 3.91757L33.9384 5.62365C33.8673 5.72138 33.8492 5.74912 33.824 5.78742C33.724 5.93904 33.5995 6.12763 31.8968 8.41561C31.4705 8.98853 31.2576 9.73472 31.2973 10.5171C31.4482 13.4903 31.0857 16.1803 30.2192 18.5121C29.3997 20.7182 28.1298 22.611 26.4452 24.138C24.3605 26.0271 21.7023 27.3206 18.5441 27.982C16.9949 28.3064 15.3312 28.4691 13.6093 28.4691Z" fill="white"/>
</svg>
